<svg width="101" height="112" viewBox="0 0 101 112" fill="none" xmlns="http://www.w3.org/2000/svg">
<path d="M0 0H101V92C101 103.046 92.0457 112 81 112H20C8.95431 112 0 103.046 0 92V0Z" fill="#433F3C"/>
<path d="M20.82 64.4L22.62 59.6H41.22L43.02 64.4H20.82ZM31.8 44.48L24.72 61.16L24.24 62.24L18 77H12.3L31.8 32.9L51.3 77H45.6L39.48 62.6L39 61.4L31.8 44.48Z" fill="#F5F5F5"/>
<path d="M52.8 35H57.9V77H52.8V35ZM65.4 77H55.62V71.9H65.4C67.76 71.9 69.92 71.54 71.88 70.82C73.84 70.06 75.52 69 76.92 67.64C78.32 66.24 79.4 64.56 80.16 62.6C80.92 60.64 81.3 58.44 81.3 56C81.3 53.56 80.92 51.36 80.16 49.4C79.4 47.44 78.32 45.78 76.92 44.42C75.52 43.02 73.84 41.96 71.88 41.24C69.92 40.48 67.76 40.1 65.4 40.1H55.62V35H65.4C69.48 35 73.1 35.88 76.26 37.64C79.42 39.4 81.9 41.86 83.7 45.02C85.5 48.14 86.4 51.8 86.4 56C86.4 60.2 85.5 63.88 83.7 67.04C81.9 70.16 79.42 72.6 76.26 74.36C73.1 76.12 69.48 77 65.4 77Z" fill="#F5F5F5"/>
</svg>
